<?xml version="1.0" encoding="utf-8"?>
<!-- Generator: Adobe Illustrator 24.1.3, SVG Export Plug-In . SVG Version: 6.00 Build 0)  -->
<svg version="1.1" id="Ebene_1" xmlns="http://www.w3.org/2000/svg" xmlns:xlink="http://www.w3.org/1999/xlink" x="0px" y="0px"
	 viewBox="0 0 22.93 20.46" style="enable-background:new 0 0 22.93 20.46;" xml:space="preserve">
<style type="text/css">
	.st0{fill:#D8D8D8;}
	.st1{fill:#FEF3F9;}
	.st2{fill:#EEF5E3;}
	.st3{fill:none;stroke:#EC69A4;stroke-width:8;stroke-miterlimit:10;}
	.st4{fill:none;stroke:#EC69A4;stroke-width:8;stroke-miterlimit:10;stroke-dasharray:29.9391,29.9391;}
	.st5{fill:none;stroke:#CECECE;stroke-width:8;stroke-miterlimit:10;}
	.st6{fill:none;stroke:#CECECE;stroke-width:8;stroke-miterlimit:10;stroke-dasharray:11.9758,11.9758;}
	.st7{fill:none;stroke:#000000;stroke-width:3;stroke-miterlimit:10;}
	.st8{fill:#B4E1FA;}
	.st9{clip-path:url(#SVGID_2_);}
	.st10{fill:#FFFFFF;stroke:#000000;stroke-width:0.5;stroke-miterlimit:10;}
	.st11{fill:#FFFFFF;}
	.st12{opacity:0.52;}
	.st13{fill:url(#SVGID_3_);}
	.st14{opacity:0.47;fill:url(#SVGID_4_);}
	.st15{opacity:0.45;fill:url(#SVGID_5_);}
	.st16{filter:url(#Adobe_OpacityMaskFilter);}
	.st17{mask:url(#SVGID_6_);fill:url(#SVGID_7_);}
	.st18{filter:url(#Adobe_OpacityMaskFilter_1_);}
	.st19{mask:url(#SVGID_8_);fill:url(#SVGID_9_);}
	.st20{fill:none;stroke:#000000;stroke-width:3;stroke-linecap:round;stroke-linejoin:round;}
	.st21{fill:none;stroke:#000000;stroke-width:3;stroke-linecap:round;stroke-linejoin:round;stroke-miterlimit:10;}
	.st22{opacity:0.23;}
	.st23{fill:#6067AE;}
	.st24{fill:#DBF0FD;stroke:#005AA7;stroke-width:7;stroke-miterlimit:10;}
	.st25{fill:#FFE2B0;stroke:#E74310;stroke-width:7;stroke-miterlimit:10;}
	.st26{fill:#DDE48B;stroke:#1FA637;stroke-width:7;stroke-miterlimit:10;}
	.st27{fill:#DADADA;stroke:#000000;stroke-width:7;stroke-miterlimit:10;}
	.st28{fill:#F9D1E4;stroke:#E6007E;stroke-width:7;stroke-miterlimit:10;}
	.st29{fill:none;stroke:#E74310;stroke-width:5;stroke-miterlimit:10;}
	.st30{fill:#E74310;}
	.st31{fill:url(#SVGID_10_);}
	.st32{opacity:0.47;fill:url(#SVGID_11_);}
	.st33{opacity:0.45;fill:url(#SVGID_12_);}
	.st34{filter:url(#Adobe_OpacityMaskFilter_2_);}
	.st35{mask:url(#SVGID_13_);fill:url(#SVGID_14_);}
	.st36{filter:url(#Adobe_OpacityMaskFilter_3_);}
	.st37{mask:url(#SVGID_15_);fill:url(#SVGID_16_);}
	.st38{fill:url(#SVGID_17_);}
	.st39{opacity:0.47;fill:url(#SVGID_18_);}
	.st40{opacity:0.45;fill:url(#SVGID_19_);}
	.st41{filter:url(#Adobe_OpacityMaskFilter_4_);}
	.st42{mask:url(#SVGID_20_);fill:url(#SVGID_21_);}
	.st43{filter:url(#Adobe_OpacityMaskFilter_5_);}
	.st44{mask:url(#SVGID_22_);fill:url(#SVGID_23_);}
	.st45{fill:url(#SVGID_24_);}
	.st46{opacity:0.47;fill:url(#SVGID_25_);}
	.st47{opacity:0.45;fill:url(#SVGID_26_);}
	.st48{filter:url(#Adobe_OpacityMaskFilter_6_);}
	.st49{mask:url(#SVGID_27_);fill:url(#SVGID_28_);}
	.st50{filter:url(#Adobe_OpacityMaskFilter_7_);}
	.st51{mask:url(#SVGID_29_);fill:url(#SVGID_30_);}
	.st52{fill:#DEDC00;stroke:#2D2E83;stroke-miterlimit:10;}
	.st53{clip-path:url(#SVGID_32_);}
	.st54{fill:url(#SVGID_33_);}
	.st55{opacity:0.47;fill:url(#SVGID_34_);}
	.st56{opacity:0.45;fill:url(#SVGID_35_);}
	.st57{filter:url(#Adobe_OpacityMaskFilter_8_);}
	.st58{mask:url(#SVGID_36_);fill:url(#SVGID_37_);}
	.st59{filter:url(#Adobe_OpacityMaskFilter_9_);}
	.st60{mask:url(#SVGID_38_);fill:url(#SVGID_39_);}
	.st61{fill:url(#SVGID_40_);}
	.st62{opacity:0.47;fill:url(#SVGID_41_);}
	.st63{opacity:0.45;fill:url(#SVGID_42_);}
	.st64{filter:url(#Adobe_OpacityMaskFilter_10_);}
	.st65{mask:url(#SVGID_43_);fill:url(#SVGID_44_);}
	.st66{filter:url(#Adobe_OpacityMaskFilter_11_);}
	.st67{mask:url(#SVGID_45_);fill:url(#SVGID_46_);}
	.st68{fill:url(#SVGID_47_);}
	.st69{opacity:0.47;fill:url(#SVGID_48_);}
	.st70{opacity:0.45;fill:url(#SVGID_49_);}
	.st71{filter:url(#Adobe_OpacityMaskFilter_12_);}
	.st72{mask:url(#SVGID_50_);fill:url(#SVGID_51_);}
	.st73{filter:url(#Adobe_OpacityMaskFilter_13_);}
	.st74{mask:url(#SVGID_52_);fill:url(#SVGID_53_);}
	.st75{fill:url(#SVGID_54_);}
	.st76{opacity:0.47;fill:url(#SVGID_55_);}
	.st77{opacity:0.45;fill:url(#SVGID_56_);}
	.st78{filter:url(#Adobe_OpacityMaskFilter_14_);}
	.st79{mask:url(#SVGID_57_);fill:url(#SVGID_58_);}
	.st80{filter:url(#Adobe_OpacityMaskFilter_15_);}
	.st81{mask:url(#SVGID_59_);fill:url(#SVGID_60_);}
	.st82{stroke:#000000;stroke-miterlimit:10;}
	.st83{fill:#FFFDEA;}
	.st84{clip-path:url(#SVGID_62_);}
	.st85{fill:url(#SVGID_63_);}
	.st86{opacity:0.47;fill:url(#SVGID_64_);}
	.st87{opacity:0.45;fill:url(#SVGID_65_);}
	.st88{filter:url(#Adobe_OpacityMaskFilter_16_);}
	.st89{mask:url(#SVGID_66_);fill:url(#SVGID_67_);}
	.st90{filter:url(#Adobe_OpacityMaskFilter_17_);}
	.st91{mask:url(#SVGID_68_);fill:url(#SVGID_69_);}
	.st92{fill:url(#SVGID_70_);}
	.st93{opacity:0.47;fill:url(#SVGID_71_);}
	.st94{opacity:0.45;fill:url(#SVGID_72_);}
	.st95{filter:url(#Adobe_OpacityMaskFilter_18_);}
	.st96{mask:url(#SVGID_73_);fill:url(#SVGID_74_);}
	.st97{filter:url(#Adobe_OpacityMaskFilter_19_);}
	.st98{mask:url(#SVGID_75_);fill:url(#SVGID_76_);}
	.st99{fill:#DEDC00;stroke:#2D2E83;stroke-width:0.1405;stroke-miterlimit:10;}
</style>
<g>
	<path d="M9.88,11.57c0.09-0.27,0.19-0.5,0.23-0.74c0.1-0.61-0.47-1.16-1.23-1.17c-0.96-0.01-1.92,0-2.87,0
		c-0.28,0-0.64,0.06-0.66-0.35c-0.02-0.48,0.4-0.35,0.68-0.39C6.17,8.9,6.34,8.94,6.48,8.91C6.61,8.87,6.77,8.8,6.84,8.69
		C6.87,8.63,6.78,8.44,6.7,8.36C6.41,8.08,6.1,7.82,5.79,7.58C5.22,7.12,4.73,7.15,4.22,7.66C3.51,8.39,2.81,9.14,2.07,9.85
		c-0.94,0.91-1.52,1.94-1.35,3.3c0.06,0.45,0.04,0.92,0,1.38c-0.1,1.34,1.13,2.8,2.5,2.87c1.55,0.08,3.1,0.06,4.65,0.08
		c0.54,0.01,1.11-0.05,1.31-0.6c0.13-0.36,0.01-0.82,0-1.28c0.99-0.3,1.25-0.82,0.73-1.88c0.6-0.17,1.09-0.45,1.04-1.12
		C10.92,11.98,10.49,11.67,9.88,11.57z"/>
	<path d="M21.78,12.83c0.09-1.08-0.35-1.92-1.08-2.66c-0.81-0.83-1.61-1.66-2.42-2.5c-0.52-0.53-1.02-0.56-1.62-0.08
		c-0.15,0.12-0.31,0.23-0.43,0.37c-0.21,0.25-0.38,0.51-0.57,0.77c0.3,0.06,0.61,0.12,0.91,0.17c0.25,0.04,0.63-0.02,0.56,0.37
		c-0.03,0.15-0.37,0.35-0.57,0.35c-0.98,0.04-1.95,0-2.93,0.02c-1.02,0.02-1.45,0.66-1.11,1.59c0.04,0.1,0.05,0.21,0.08,0.35
		c-0.61,0.05-0.97,0.37-1.05,0.91c-0.1,0.73,0.44,1.01,1.03,1.2c-0.49,1.09-0.27,1.53,0.9,1.95c-0.61,1.05-0.17,1.8,1.07,1.81
		c1.38,0.01,2.76-0.01,4.14,0.01c1.79,0.02,3.26-1.48,3.09-3.15C21.73,13.83,21.74,13.33,21.78,12.83z"/>
	<path d="M11.78,7.81c-0.01-0.67,0-1.34,0-2.01c0-0.71,0.01-1.42,0-2.12c-0.01-0.36-0.05-0.72-0.55-0.7
		c-0.45,0.02-0.49,0.36-0.49,0.69c-0.01,1.38,0,2.76-0.01,4.13c0,0.38,0.14,0.68,0.52,0.68S11.78,8.19,11.78,7.81z"/>
	<path d="M8.69,8.09c0.1,0.19,0.46,0.38,0.65,0.34c0.33-0.07,0.44-0.38,0.27-0.73c-0.51-1.06-1-2.13-1.51-3.19
		C8.01,4.34,7.81,4.21,7.74,4.14C7.1,4.12,6.97,4.55,7.27,5.17C7.74,6.15,8.18,7.14,8.69,8.09z"/>
	<path d="M13.13,8.42c0.2,0.04,0.56-0.12,0.67-0.3c0.29-0.44,0.48-0.95,0.7-1.43c0.28-0.6,0.57-1.2,0.82-1.81
		c0.15-0.36,0.1-0.68-0.51-0.78c-0.11,0.12-0.33,0.25-0.42,0.44c-0.52,1.05-1.01,2.12-1.51,3.19C12.73,8.05,12.82,8.36,13.13,8.42z"
		/>
</g>
</svg>
