<?xml version="1.0" encoding="utf-8"?>
<!-- Generator: Adobe Illustrator 24.1.3, SVG Export Plug-In . SVG Version: 6.00 Build 0)  -->
<svg version="1.1" id="Ebene_1" xmlns="http://www.w3.org/2000/svg" xmlns:xlink="http://www.w3.org/1999/xlink" x="0px" y="0px"
	 viewBox="0 0 22.93 20.46" style="enable-background:new 0 0 22.93 20.46;" xml:space="preserve">
<style type="text/css">
	.st0{fill:#D8D8D8;}
	.st1{fill:#FEF3F9;}
	.st2{fill:#EEF5E3;}
	.st3{fill:none;stroke:#EC69A4;stroke-width:8;stroke-miterlimit:10;}
	.st4{fill:none;stroke:#EC69A4;stroke-width:8;stroke-miterlimit:10;stroke-dasharray:29.9391,29.9391;}
	.st5{fill:none;stroke:#CECECE;stroke-width:8;stroke-miterlimit:10;}
	.st6{fill:none;stroke:#CECECE;stroke-width:8;stroke-miterlimit:10;stroke-dasharray:11.9758,11.9758;}
	.st7{fill:none;stroke:#000000;stroke-width:3;stroke-miterlimit:10;}
	.st8{fill:#B4E1FA;}
	.st9{clip-path:url(#SVGID_2_);}
	.st10{fill:#FFFFFF;stroke:#000000;stroke-width:0.5;stroke-miterlimit:10;}
	.st11{fill:#FFFFFF;}
	.st12{opacity:0.52;}
	.st13{fill:url(#SVGID_3_);}
	.st14{opacity:0.47;fill:url(#SVGID_4_);}
	.st15{opacity:0.45;fill:url(#SVGID_5_);}
	.st16{filter:url(#Adobe_OpacityMaskFilter);}
	.st17{mask:url(#SVGID_6_);fill:url(#SVGID_7_);}
	.st18{filter:url(#Adobe_OpacityMaskFilter_1_);}
	.st19{mask:url(#SVGID_8_);fill:url(#SVGID_9_);}
	.st20{fill:none;stroke:#000000;stroke-width:3;stroke-linecap:round;stroke-linejoin:round;}
	.st21{fill:none;stroke:#000000;stroke-width:3;stroke-linecap:round;stroke-linejoin:round;stroke-miterlimit:10;}
	.st22{opacity:0.23;}
	.st23{fill:#6067AE;}
	.st24{fill:#DBF0FD;stroke:#005AA7;stroke-width:7;stroke-miterlimit:10;}
	.st25{fill:#FFE2B0;stroke:#E74310;stroke-width:7;stroke-miterlimit:10;}
	.st26{fill:#DDE48B;stroke:#1FA637;stroke-width:7;stroke-miterlimit:10;}
	.st27{fill:#DADADA;stroke:#000000;stroke-width:7;stroke-miterlimit:10;}
	.st28{fill:#F9D1E4;stroke:#E6007E;stroke-width:7;stroke-miterlimit:10;}
	.st29{fill:none;stroke:#E74310;stroke-width:5;stroke-miterlimit:10;}
	.st30{fill:#E74310;}
	.st31{fill:url(#SVGID_10_);}
	.st32{opacity:0.47;fill:url(#SVGID_11_);}
	.st33{opacity:0.45;fill:url(#SVGID_12_);}
	.st34{filter:url(#Adobe_OpacityMaskFilter_2_);}
	.st35{mask:url(#SVGID_13_);fill:url(#SVGID_14_);}
	.st36{filter:url(#Adobe_OpacityMaskFilter_3_);}
	.st37{mask:url(#SVGID_15_);fill:url(#SVGID_16_);}
	.st38{fill:url(#SVGID_17_);}
	.st39{opacity:0.47;fill:url(#SVGID_18_);}
	.st40{opacity:0.45;fill:url(#SVGID_19_);}
	.st41{filter:url(#Adobe_OpacityMaskFilter_4_);}
	.st42{mask:url(#SVGID_20_);fill:url(#SVGID_21_);}
	.st43{filter:url(#Adobe_OpacityMaskFilter_5_);}
	.st44{mask:url(#SVGID_22_);fill:url(#SVGID_23_);}
	.st45{fill:url(#SVGID_24_);}
	.st46{opacity:0.47;fill:url(#SVGID_25_);}
	.st47{opacity:0.45;fill:url(#SVGID_26_);}
	.st48{filter:url(#Adobe_OpacityMaskFilter_6_);}
	.st49{mask:url(#SVGID_27_);fill:url(#SVGID_28_);}
	.st50{filter:url(#Adobe_OpacityMaskFilter_7_);}
	.st51{mask:url(#SVGID_29_);fill:url(#SVGID_30_);}
	.st52{fill:#DEDC00;stroke:#2D2E83;stroke-miterlimit:10;}
	.st53{clip-path:url(#SVGID_32_);}
	.st54{fill:url(#SVGID_33_);}
	.st55{opacity:0.47;fill:url(#SVGID_34_);}
	.st56{opacity:0.45;fill:url(#SVGID_35_);}
	.st57{filter:url(#Adobe_OpacityMaskFilter_8_);}
	.st58{mask:url(#SVGID_36_);fill:url(#SVGID_37_);}
	.st59{filter:url(#Adobe_OpacityMaskFilter_9_);}
	.st60{mask:url(#SVGID_38_);fill:url(#SVGID_39_);}
	.st61{fill:url(#SVGID_40_);}
	.st62{opacity:0.47;fill:url(#SVGID_41_);}
	.st63{opacity:0.45;fill:url(#SVGID_42_);}
	.st64{filter:url(#Adobe_OpacityMaskFilter_10_);}
	.st65{mask:url(#SVGID_43_);fill:url(#SVGID_44_);}
	.st66{filter:url(#Adobe_OpacityMaskFilter_11_);}
	.st67{mask:url(#SVGID_45_);fill:url(#SVGID_46_);}
	.st68{fill:url(#SVGID_47_);}
	.st69{opacity:0.47;fill:url(#SVGID_48_);}
	.st70{opacity:0.45;fill:url(#SVGID_49_);}
	.st71{filter:url(#Adobe_OpacityMaskFilter_12_);}
	.st72{mask:url(#SVGID_50_);fill:url(#SVGID_51_);}
	.st73{filter:url(#Adobe_OpacityMaskFilter_13_);}
	.st74{mask:url(#SVGID_52_);fill:url(#SVGID_53_);}
	.st75{fill:url(#SVGID_54_);}
	.st76{opacity:0.47;fill:url(#SVGID_55_);}
	.st77{opacity:0.45;fill:url(#SVGID_56_);}
	.st78{filter:url(#Adobe_OpacityMaskFilter_14_);}
	.st79{mask:url(#SVGID_57_);fill:url(#SVGID_58_);}
	.st80{filter:url(#Adobe_OpacityMaskFilter_15_);}
	.st81{mask:url(#SVGID_59_);fill:url(#SVGID_60_);}
	.st82{stroke:#000000;stroke-miterlimit:10;}
	.st83{fill:#FFFDEA;}
	.st84{clip-path:url(#SVGID_62_);}
	.st85{fill:url(#SVGID_63_);}
	.st86{opacity:0.47;fill:url(#SVGID_64_);}
	.st87{opacity:0.45;fill:url(#SVGID_65_);}
	.st88{filter:url(#Adobe_OpacityMaskFilter_16_);}
	.st89{mask:url(#SVGID_66_);fill:url(#SVGID_67_);}
	.st90{filter:url(#Adobe_OpacityMaskFilter_17_);}
	.st91{mask:url(#SVGID_68_);fill:url(#SVGID_69_);}
	.st92{fill:url(#SVGID_70_);}
	.st93{opacity:0.47;fill:url(#SVGID_71_);}
	.st94{opacity:0.45;fill:url(#SVGID_72_);}
	.st95{filter:url(#Adobe_OpacityMaskFilter_18_);}
	.st96{mask:url(#SVGID_73_);fill:url(#SVGID_74_);}
	.st97{filter:url(#Adobe_OpacityMaskFilter_19_);}
	.st98{mask:url(#SVGID_75_);fill:url(#SVGID_76_);}
	.st99{fill:#DEDC00;stroke:#2D2E83;stroke-width:0.1405;stroke-miterlimit:10;}
</style>
<g>
	<path d="M20.78,12.41c0,0.88,0,1.68,0,2.48c0,0.77-0.19,0.95-0.97,0.95c-6.05,0-12.11,0-18.16,0c-0.78,0-0.94-0.16-0.94-0.97
		c0-3.02,0-6.04,0-9.05c0-0.78,0.17-0.94,0.97-0.94c6.04,0,12.07,0,18.11,0c0.83,0,1,0.18,1.01,1.03c0,0.64,0.02,1.28-0.01,1.91
		c-0.01,0.36,0.1,0.49,0.47,0.5c1.22,0.02,1.22,0.04,1.22,1.26c0,0.79-0.01,1.57,0,2.36c0.01,0.34-0.12,0.48-0.46,0.46
		C21.63,12.4,21.24,12.41,20.78,12.41z M10.7,15.57c3.02,0,6.03,0,9.05,0c0.67,0,0.74-0.07,0.74-0.74c0-2.98-0.01-5.96,0.01-8.94
		c0-0.52-0.16-0.73-0.71-0.73c-6.03,0.01-12.06,0.02-18.1,0C1.12,5.16,1,5.36,1,5.88c0.02,2.98,0.01,5.96,0.01,8.94
		c0,0.75,0,0.75,0.75,0.75C4.74,15.57,7.72,15.57,10.7,15.57z M22.16,12.08c0-1.15,0-2.27,0-3.41c-0.47,0-0.93,0-1.37,0
		c0,1.16,0,2.27,0,3.41C21.26,12.08,21.7,12.08,22.16,12.08z"/>
	<path d="M2.16,14.6c0-2.85,0-5.62,0-8.47c0.76,0,1.51-0.01,2.25,0.02c0.09,0,0.24,0.22,0.24,0.34c0.01,2.58,0.01,5.17,0,7.75
		c0,0.12-0.19,0.34-0.3,0.35C3.64,14.62,2.93,14.6,2.16,14.6z"/>
	<path d="M5.54,14.61c0-2.86,0-5.62,0-8.47c0.42,0,0.83-0.03,1.23,0.02c0.11,0.01,0.29,0.23,0.3,0.35c0.02,2.58,0.02,5.16,0,7.74
		c0,0.12-0.22,0.33-0.35,0.35C6.34,14.64,5.97,14.61,5.54,14.61z"/>
	<path d="M18.13,11.39c-0.71-0.12-1.43-0.22-2.14-0.35c-0.79-0.14-0.79-0.15-0.79,0.63c0,0.22,0,0.43,0,0.83
		c-1.47-1.05-2.8-2-4.12-2.95c0.03-0.07,0.07-0.13,0.1-0.2c0.91,0.2,1.82,0.4,2.84,0.62c0-0.57,0-1.08,0-1.76
		c1.5,1.06,2.86,2.02,4.21,2.98C18.19,11.26,18.16,11.33,18.13,11.39z"/>
	<path d="M8.62,14.52c-0.68,0.14-0.71,0.12-0.71-0.51c0-2.43,0-4.86,0-7.29c0-0.63,0.04-0.65,0.71-0.5
		C8.62,8.97,8.62,11.73,8.62,14.52z"/>
</g>
</svg>
