<?xml version="1.0" encoding="utf-8"?>
<!-- Generator: Adobe Illustrator 24.1.3, SVG Export Plug-In . SVG Version: 6.00 Build 0)  -->
<svg version="1.1" id="Ebene_1" xmlns="http://www.w3.org/2000/svg" xmlns:xlink="http://www.w3.org/1999/xlink" x="0px" y="0px"
	 viewBox="0 0 22.93 20.46" style="enable-background:new 0 0 22.93 20.46;" xml:space="preserve">
<style type="text/css">
	.st0{fill:#D8D8D8;}
	.st1{fill:#FEF3F9;}
	.st2{fill:#EEF5E3;}
	.st3{fill:none;stroke:#EC69A4;stroke-width:8;stroke-miterlimit:10;}
	.st4{fill:none;stroke:#EC69A4;stroke-width:8;stroke-miterlimit:10;stroke-dasharray:29.9391,29.9391;}
	.st5{fill:none;stroke:#CECECE;stroke-width:8;stroke-miterlimit:10;}
	.st6{fill:none;stroke:#CECECE;stroke-width:8;stroke-miterlimit:10;stroke-dasharray:11.9758,11.9758;}
	.st7{fill:none;stroke:#000000;stroke-width:3;stroke-miterlimit:10;}
	.st8{fill:#B4E1FA;}
	.st9{clip-path:url(#SVGID_2_);}
	.st10{fill:#FFFFFF;stroke:#000000;stroke-width:0.5;stroke-miterlimit:10;}
	.st11{fill:#FFFFFF;}
	.st12{opacity:0.52;}
	.st13{fill:url(#SVGID_3_);}
	.st14{opacity:0.47;fill:url(#SVGID_4_);}
	.st15{opacity:0.45;fill:url(#SVGID_5_);}
	.st16{filter:url(#Adobe_OpacityMaskFilter);}
	.st17{mask:url(#SVGID_6_);fill:url(#SVGID_7_);}
	.st18{filter:url(#Adobe_OpacityMaskFilter_1_);}
	.st19{mask:url(#SVGID_8_);fill:url(#SVGID_9_);}
	.st20{fill:none;stroke:#000000;stroke-width:3;stroke-linecap:round;stroke-linejoin:round;}
	.st21{fill:none;stroke:#000000;stroke-width:3;stroke-linecap:round;stroke-linejoin:round;stroke-miterlimit:10;}
	.st22{opacity:0.23;}
	.st23{fill:#6067AE;}
	.st24{fill:#DBF0FD;stroke:#005AA7;stroke-width:7;stroke-miterlimit:10;}
	.st25{fill:#FFE2B0;stroke:#E74310;stroke-width:7;stroke-miterlimit:10;}
	.st26{fill:#DDE48B;stroke:#1FA637;stroke-width:7;stroke-miterlimit:10;}
	.st27{fill:#DADADA;stroke:#000000;stroke-width:7;stroke-miterlimit:10;}
	.st28{fill:#F9D1E4;stroke:#E6007E;stroke-width:7;stroke-miterlimit:10;}
	.st29{fill:none;stroke:#E74310;stroke-width:5;stroke-miterlimit:10;}
	.st30{fill:#E74310;}
	.st31{fill:url(#SVGID_10_);}
	.st32{opacity:0.47;fill:url(#SVGID_11_);}
	.st33{opacity:0.45;fill:url(#SVGID_12_);}
	.st34{filter:url(#Adobe_OpacityMaskFilter_2_);}
	.st35{mask:url(#SVGID_13_);fill:url(#SVGID_14_);}
	.st36{filter:url(#Adobe_OpacityMaskFilter_3_);}
	.st37{mask:url(#SVGID_15_);fill:url(#SVGID_16_);}
	.st38{fill:url(#SVGID_17_);}
	.st39{opacity:0.47;fill:url(#SVGID_18_);}
	.st40{opacity:0.45;fill:url(#SVGID_19_);}
	.st41{filter:url(#Adobe_OpacityMaskFilter_4_);}
	.st42{mask:url(#SVGID_20_);fill:url(#SVGID_21_);}
	.st43{filter:url(#Adobe_OpacityMaskFilter_5_);}
	.st44{mask:url(#SVGID_22_);fill:url(#SVGID_23_);}
	.st45{fill:url(#SVGID_24_);}
	.st46{opacity:0.47;fill:url(#SVGID_25_);}
	.st47{opacity:0.45;fill:url(#SVGID_26_);}
	.st48{filter:url(#Adobe_OpacityMaskFilter_6_);}
	.st49{mask:url(#SVGID_27_);fill:url(#SVGID_28_);}
	.st50{filter:url(#Adobe_OpacityMaskFilter_7_);}
	.st51{mask:url(#SVGID_29_);fill:url(#SVGID_30_);}
	.st52{fill:#DEDC00;stroke:#2D2E83;stroke-miterlimit:10;}
	.st53{clip-path:url(#SVGID_32_);}
	.st54{fill:url(#SVGID_33_);}
	.st55{opacity:0.47;fill:url(#SVGID_34_);}
	.st56{opacity:0.45;fill:url(#SVGID_35_);}
	.st57{filter:url(#Adobe_OpacityMaskFilter_8_);}
	.st58{mask:url(#SVGID_36_);fill:url(#SVGID_37_);}
	.st59{filter:url(#Adobe_OpacityMaskFilter_9_);}
	.st60{mask:url(#SVGID_38_);fill:url(#SVGID_39_);}
	.st61{fill:url(#SVGID_40_);}
	.st62{opacity:0.47;fill:url(#SVGID_41_);}
	.st63{opacity:0.45;fill:url(#SVGID_42_);}
	.st64{filter:url(#Adobe_OpacityMaskFilter_10_);}
	.st65{mask:url(#SVGID_43_);fill:url(#SVGID_44_);}
	.st66{filter:url(#Adobe_OpacityMaskFilter_11_);}
	.st67{mask:url(#SVGID_45_);fill:url(#SVGID_46_);}
	.st68{fill:url(#SVGID_47_);}
	.st69{opacity:0.47;fill:url(#SVGID_48_);}
	.st70{opacity:0.45;fill:url(#SVGID_49_);}
	.st71{filter:url(#Adobe_OpacityMaskFilter_12_);}
	.st72{mask:url(#SVGID_50_);fill:url(#SVGID_51_);}
	.st73{filter:url(#Adobe_OpacityMaskFilter_13_);}
	.st74{mask:url(#SVGID_52_);fill:url(#SVGID_53_);}
	.st75{fill:url(#SVGID_54_);}
	.st76{opacity:0.47;fill:url(#SVGID_55_);}
	.st77{opacity:0.45;fill:url(#SVGID_56_);}
	.st78{filter:url(#Adobe_OpacityMaskFilter_14_);}
	.st79{mask:url(#SVGID_57_);fill:url(#SVGID_58_);}
	.st80{filter:url(#Adobe_OpacityMaskFilter_15_);}
	.st81{mask:url(#SVGID_59_);fill:url(#SVGID_60_);}
	.st82{stroke:#000000;stroke-miterlimit:10;}
	.st83{fill:#FFFDEA;}
	.st84{clip-path:url(#SVGID_62_);}
	.st85{fill:url(#SVGID_63_);}
	.st86{opacity:0.47;fill:url(#SVGID_64_);}
	.st87{opacity:0.45;fill:url(#SVGID_65_);}
	.st88{filter:url(#Adobe_OpacityMaskFilter_16_);}
	.st89{mask:url(#SVGID_66_);fill:url(#SVGID_67_);}
	.st90{filter:url(#Adobe_OpacityMaskFilter_17_);}
	.st91{mask:url(#SVGID_68_);fill:url(#SVGID_69_);}
	.st92{fill:url(#SVGID_70_);}
	.st93{opacity:0.47;fill:url(#SVGID_71_);}
	.st94{opacity:0.45;fill:url(#SVGID_72_);}
	.st95{filter:url(#Adobe_OpacityMaskFilter_18_);}
	.st96{mask:url(#SVGID_73_);fill:url(#SVGID_74_);}
	.st97{filter:url(#Adobe_OpacityMaskFilter_19_);}
	.st98{mask:url(#SVGID_75_);fill:url(#SVGID_76_);}
	.st99{fill:#DEDC00;stroke:#2D2E83;stroke-width:0.1405;stroke-miterlimit:10;}
</style>
<g>
	<path d="M14.64,20.03c-1.09,0.03-1.87-0.44-2.44-1.26c-0.26-0.37-0.4-0.31-0.63,0.02c-1.15,1.63-3.5,1.69-4.77,0.16
		c-0.18-0.21-0.48-0.38-0.76-0.43c-1.29-0.25-2.37-1.62-2.24-2.92c0.01-0.16-0.09-0.35-0.19-0.49c-0.65-0.91-0.82-1.85-0.3-2.89
		c0.09-0.19,0.09-0.49,0-0.69c-0.5-1.15-0.42-2.19,0.45-3.14c0.11-0.12,0.16-0.38,0.12-0.55c-0.32-1.3,0.16-2.27,1.18-3.05
		c0.14-0.11,0.26-0.33,0.27-0.5c0.04-1.02,0.6-1.65,1.45-2.1C6.98,2.08,7.18,1.9,7.3,1.7c0.99-1.57,3.02-1.76,4.21-0.36
		c0.32,0.38,0.47,0.32,0.76-0.02c1.16-1.37,3.2-1.18,4.18,0.35c0.14,0.21,0.34,0.41,0.56,0.53c0.84,0.47,1.4,1.1,1.43,2.12
		c0,0.17,0.15,0.38,0.29,0.49c1.01,0.76,1.45,1.73,1.18,3C19.87,8,19.95,8.3,20.08,8.45c0.78,0.91,0.86,1.9,0.44,2.99
		c-0.09,0.24-0.14,0.59-0.03,0.8c0.46,0.95,0.37,1.83-0.19,2.68c-0.2,0.3-0.27,0.56-0.3,0.94c-0.1,1.32-0.96,2.34-2.22,2.65
		c-0.31,0.07-0.63,0.28-0.85,0.51C16.28,19.68,15.54,20.09,14.64,20.03z M3.98,12.54c-0.47,0.68-0.39,1.45,0.18,2.19
		c0.18,0.23,0.29,0.59,0.29,0.89c-0.02,1.13,0.8,2.18,1.86,2.22c0.44,0.02,0.66,0.18,0.9,0.53c0.75,1.1,2.12,1.34,3.21,0.63
		c1.07-0.69,1.41-2.17,0.76-3.27c-0.43-0.73-1.1-1.03-1.9-1.18C9.13,14.52,9,14.29,8.86,14.16c0.2-0.11,0.39-0.23,0.6-0.31
		c0.08-0.03,0.2,0.04,0.3,0.08c0.58,0.25,1.15,0.51,1.75,0.78c0.01-0.15,0.03-0.32,0.03-0.48c0-2.14-0.01-4.28,0.01-6.42
		c0.01-0.62-0.19-1-0.82-1.15c-0.13-0.03-0.21-0.24-0.31-0.36c0.15-0.09,0.29-0.24,0.44-0.26c0.19-0.03,0.4,0.04,0.64,0.08
		c0-1.18,0.05-2.31-0.02-3.43c-0.04-0.7-0.85-1.46-1.53-1.58C9.12,0.94,8.49,1.27,7.98,1.94c0.38,0.22,0.76,0.4,1.09,0.65
		c0.12,0.09,0.12,0.35,0.17,0.53C9.06,3.12,8.87,3.14,8.69,3.13c-0.07-0.01-0.13-0.1-0.2-0.15C7.92,2.65,7.33,2.62,6.77,2.97
		C6.31,3.25,6.03,3.68,6.06,4.22c0.53,0.14,1.02,0.22,1.48,0.4c0.9,0.35,1.65,1.51,1.56,2.38C9.08,7.18,8.9,7.34,8.8,7.5
		C8.67,7.37,8.53,7.26,8.43,7.12c-0.06-0.08-0.05-0.2-0.07-0.3c-0.13-0.85-0.6-1.43-1.41-1.68C6.21,4.9,5.55,5.12,5.03,5.71
		C4.45,6.36,4.26,7.12,4.64,7.92c0.16,0.35,0.11,0.52-0.16,0.73C3.82,9.18,3.52,9.88,3.74,10.7c0.24,0.89,0.83,1.48,1.8,1.62
		c0.16,0.02,0.29,0.26,0.43,0.4c-0.16,0.09-0.35,0.29-0.49,0.26C5,12.89,4.53,12.71,3.98,12.54z M15.8,1.93
		c-0.54-0.66-1.15-1.01-1.96-0.83c-0.79,0.17-1.41,0.72-1.5,1.45c-0.15,1.16-0.04,2.36-0.04,3.58c0.2-0.04,0.35-0.11,0.48-0.08
		c0.2,0.04,0.39,0.15,0.58,0.24c-0.14,0.14-0.25,0.36-0.42,0.41c-0.53,0.17-0.71,0.51-0.7,1.04c0.01,2.2,0.01,4.41,0.01,6.61
		c0,0.13,0.03,0.27,0.05,0.45c0.13-0.06,0.2-0.1,0.28-0.13c0.58-0.27,1.14-0.58,1.74-0.8c0.14-0.05,0.39,0.18,0.59,0.28
		c-0.14,0.14-0.26,0.33-0.43,0.41c-0.3,0.13-0.66,0.14-0.95,0.29c-0.94,0.46-1.4,1.41-1.27,2.51c0.1,0.86,0.93,1.77,1.8,1.99
		c0.91,0.23,1.9-0.17,2.5-0.95c0.17-0.22,0.46-0.52,0.68-0.51c1.12,0.04,2.22-1.2,2.06-2.38c-0.03-0.24,0.12-0.56,0.28-0.76
		c0.62-0.78,0.68-1.59,0.15-2.2c-0.47,0.16-0.92,0.35-1.38,0.44c-0.16,0.03-0.38-0.19-0.57-0.3c0.16-0.12,0.3-0.32,0.48-0.35
		c0.94-0.16,1.5-0.74,1.75-1.6c0.23-0.8-0.06-1.5-0.68-2.02c-0.3-0.25-0.38-0.42-0.2-0.82c0.37-0.8,0.15-1.56-0.44-2.2
		c-0.53-0.58-1.21-0.78-1.94-0.53c-0.82,0.28-1.27,0.9-1.39,1.78c-0.03,0.21-0.26,0.38-0.39,0.57c-0.11-0.22-0.32-0.45-0.3-0.66
		c0.1-1.01,0.6-1.79,1.53-2.21c0.45-0.2,0.95-0.26,1.49-0.41c-0.01-0.11,0.01-0.28-0.05-0.43c-0.37-1.05-1.48-1.34-2.53-0.72
		c-0.16,0.09-0.4,0.04-0.6,0.05c0.06-0.19,0.07-0.46,0.2-0.57C15.04,2.31,15.41,2.15,15.8,1.93z"/>
	<path d="M8.3,9.8C7.22,9.46,6.44,8.85,6.18,7.74C6.14,7.6,6.08,7.44,6.12,7.32c0.07-0.18,0.22-0.34,0.33-0.51
		c0.13,0.16,0.37,0.32,0.37,0.48c0,1.55,1.94,2.24,3.09,1.45c0.17-0.11,0.44-0.07,0.66-0.11c-0.09,0.22-0.12,0.56-0.28,0.64
		c-0.73,0.35-1.37,0.75-1.78,1.51c-0.15,0.28-0.66,0.41-1.03,0.51c-0.18,0.05-0.42-0.14-0.63-0.23c0.15-0.14,0.29-0.34,0.46-0.4
		C7.98,10.44,8.05,10.4,8.3,9.8z"/>
	<path d="M9.11,18.17c-0.04,0.06-0.17,0.22-0.3,0.38c-0.14-0.16-0.38-0.3-0.41-0.48c-0.16-1.1-0.72-1.77-1.86-1.95
		c-0.16-0.02-0.29-0.24-0.43-0.37c0.18-0.11,0.35-0.3,0.53-0.3C7.85,15.44,9.1,16.74,9.11,18.17z"/>
	<path d="M9.91,12.72c-0.16,0.1-0.3,0.26-0.47,0.28c-0.94,0.11-1.69,0.52-2.25,1.3c-0.09,0.13-0.34,0.14-0.51,0.2
		c-0.02-0.2-0.12-0.46-0.04-0.6c0.63-0.96,1.54-1.5,2.69-1.58c0.18-0.01,0.37,0.12,0.56,0.19C9.9,12.58,9.91,12.65,9.91,12.72z"/>
	<path d="M15.49,9.81c0.09,0.57,0.51,0.69,0.93,0.85c0.19,0.07,0.32,0.29,0.48,0.43c-0.22,0.07-0.45,0.22-0.66,0.19
		c-0.64-0.09-1.09-0.45-1.41-1.03c-0.14-0.25-0.44-0.43-0.69-0.61c-0.24-0.16-0.54-0.24-0.75-0.43c-0.13-0.12-0.15-0.37-0.22-0.56
		c0.2,0,0.44-0.07,0.6,0.02c0.91,0.51,1.88,0.54,2.49-0.08c0.31-0.32,0.44-0.82,0.67-1.22c0.12-0.2,0.28-0.38,0.42-0.57
		c0.1,0.22,0.32,0.46,0.29,0.66C17.5,8.44,17,9.17,16.06,9.56C15.87,9.64,15.68,9.73,15.49,9.81z"/>
	<path d="M14.66,18.12c0.07-1.38,1.1-2.51,2.29-2.64c0.22-0.02,0.47,0.15,0.7,0.23c-0.18,0.16-0.34,0.4-0.55,0.45
		c-1,0.24-1.49,0.76-1.71,1.8c-0.05,0.22-0.28,0.4-0.43,0.6C14.83,18.37,14.71,18.18,14.66,18.12z"/>
	<path d="M14.26,12.29c1.32,0.13,2.25,0.66,2.88,1.65c0.08,0.13-0.02,0.36-0.04,0.55c-0.18-0.06-0.43-0.05-0.52-0.17
		c-0.56-0.78-1.3-1.2-2.24-1.32c-0.16-0.02-0.29-0.22-0.44-0.34C14.05,12.52,14.18,12.37,14.26,12.29z"/>
</g>
</svg>
