<?xml version="1.0" encoding="utf-8"?>
<!-- Generator: Adobe Illustrator 24.1.3, SVG Export Plug-In . SVG Version: 6.00 Build 0)  -->
<svg version="1.1" id="Ebene_1" xmlns="http://www.w3.org/2000/svg" xmlns:xlink="http://www.w3.org/1999/xlink" x="0px" y="0px"
	 viewBox="0 0 22.93 20.46" style="enable-background:new 0 0 22.93 20.46;" xml:space="preserve">
<style type="text/css">
	.st0{fill:#D8D8D8;}
	.st1{fill:#FEF3F9;}
	.st2{fill:#EEF5E3;}
	.st3{fill:none;stroke:#EC69A4;stroke-width:8;stroke-miterlimit:10;}
	.st4{fill:none;stroke:#EC69A4;stroke-width:8;stroke-miterlimit:10;stroke-dasharray:29.9391,29.9391;}
	.st5{fill:none;stroke:#CECECE;stroke-width:8;stroke-miterlimit:10;}
	.st6{fill:none;stroke:#CECECE;stroke-width:8;stroke-miterlimit:10;stroke-dasharray:11.9758,11.9758;}
	.st7{fill:none;stroke:#000000;stroke-width:3;stroke-miterlimit:10;}
	.st8{fill:#B4E1FA;}
	.st9{clip-path:url(#SVGID_2_);}
	.st10{fill:#FFFFFF;stroke:#000000;stroke-width:0.5;stroke-miterlimit:10;}
	.st11{fill:#FFFFFF;}
	.st12{opacity:0.52;}
	.st13{fill:url(#SVGID_3_);}
	.st14{opacity:0.47;fill:url(#SVGID_4_);}
	.st15{opacity:0.45;fill:url(#SVGID_5_);}
	.st16{filter:url(#Adobe_OpacityMaskFilter);}
	.st17{mask:url(#SVGID_6_);fill:url(#SVGID_7_);}
	.st18{filter:url(#Adobe_OpacityMaskFilter_1_);}
	.st19{mask:url(#SVGID_8_);fill:url(#SVGID_9_);}
	.st20{fill:none;stroke:#000000;stroke-width:3;stroke-linecap:round;stroke-linejoin:round;}
	.st21{fill:none;stroke:#000000;stroke-width:3;stroke-linecap:round;stroke-linejoin:round;stroke-miterlimit:10;}
	.st22{opacity:0.23;}
	.st23{fill:#6067AE;}
	.st24{fill:#DBF0FD;stroke:#005AA7;stroke-width:7;stroke-miterlimit:10;}
	.st25{fill:#FFE2B0;stroke:#E74310;stroke-width:7;stroke-miterlimit:10;}
	.st26{fill:#DDE48B;stroke:#1FA637;stroke-width:7;stroke-miterlimit:10;}
	.st27{fill:#DADADA;stroke:#000000;stroke-width:7;stroke-miterlimit:10;}
	.st28{fill:#F9D1E4;stroke:#E6007E;stroke-width:7;stroke-miterlimit:10;}
	.st29{fill:none;stroke:#E74310;stroke-width:5;stroke-miterlimit:10;}
	.st30{fill:#E74310;}
	.st31{fill:url(#SVGID_10_);}
	.st32{opacity:0.47;fill:url(#SVGID_11_);}
	.st33{opacity:0.45;fill:url(#SVGID_12_);}
	.st34{filter:url(#Adobe_OpacityMaskFilter_2_);}
	.st35{mask:url(#SVGID_13_);fill:url(#SVGID_14_);}
	.st36{filter:url(#Adobe_OpacityMaskFilter_3_);}
	.st37{mask:url(#SVGID_15_);fill:url(#SVGID_16_);}
	.st38{fill:url(#SVGID_17_);}
	.st39{opacity:0.47;fill:url(#SVGID_18_);}
	.st40{opacity:0.45;fill:url(#SVGID_19_);}
	.st41{filter:url(#Adobe_OpacityMaskFilter_4_);}
	.st42{mask:url(#SVGID_20_);fill:url(#SVGID_21_);}
	.st43{filter:url(#Adobe_OpacityMaskFilter_5_);}
	.st44{mask:url(#SVGID_22_);fill:url(#SVGID_23_);}
	.st45{fill:url(#SVGID_24_);}
	.st46{opacity:0.47;fill:url(#SVGID_25_);}
	.st47{opacity:0.45;fill:url(#SVGID_26_);}
	.st48{filter:url(#Adobe_OpacityMaskFilter_6_);}
	.st49{mask:url(#SVGID_27_);fill:url(#SVGID_28_);}
	.st50{filter:url(#Adobe_OpacityMaskFilter_7_);}
	.st51{mask:url(#SVGID_29_);fill:url(#SVGID_30_);}
	.st52{fill:#DEDC00;stroke:#2D2E83;stroke-miterlimit:10;}
	.st53{clip-path:url(#SVGID_32_);}
	.st54{fill:url(#SVGID_33_);}
	.st55{opacity:0.47;fill:url(#SVGID_34_);}
	.st56{opacity:0.45;fill:url(#SVGID_35_);}
	.st57{filter:url(#Adobe_OpacityMaskFilter_8_);}
	.st58{mask:url(#SVGID_36_);fill:url(#SVGID_37_);}
	.st59{filter:url(#Adobe_OpacityMaskFilter_9_);}
	.st60{mask:url(#SVGID_38_);fill:url(#SVGID_39_);}
	.st61{fill:url(#SVGID_40_);}
	.st62{opacity:0.47;fill:url(#SVGID_41_);}
	.st63{opacity:0.45;fill:url(#SVGID_42_);}
	.st64{filter:url(#Adobe_OpacityMaskFilter_10_);}
	.st65{mask:url(#SVGID_43_);fill:url(#SVGID_44_);}
	.st66{filter:url(#Adobe_OpacityMaskFilter_11_);}
	.st67{mask:url(#SVGID_45_);fill:url(#SVGID_46_);}
	.st68{fill:url(#SVGID_47_);}
	.st69{opacity:0.47;fill:url(#SVGID_48_);}
	.st70{opacity:0.45;fill:url(#SVGID_49_);}
	.st71{filter:url(#Adobe_OpacityMaskFilter_12_);}
	.st72{mask:url(#SVGID_50_);fill:url(#SVGID_51_);}
	.st73{filter:url(#Adobe_OpacityMaskFilter_13_);}
	.st74{mask:url(#SVGID_52_);fill:url(#SVGID_53_);}
	.st75{fill:url(#SVGID_54_);}
	.st76{opacity:0.47;fill:url(#SVGID_55_);}
	.st77{opacity:0.45;fill:url(#SVGID_56_);}
	.st78{filter:url(#Adobe_OpacityMaskFilter_14_);}
	.st79{mask:url(#SVGID_57_);fill:url(#SVGID_58_);}
	.st80{filter:url(#Adobe_OpacityMaskFilter_15_);}
	.st81{mask:url(#SVGID_59_);fill:url(#SVGID_60_);}
	.st82{stroke:#000000;stroke-miterlimit:10;}
	.st83{fill:#FFFDEA;}
	.st84{clip-path:url(#SVGID_62_);}
	.st85{fill:url(#SVGID_63_);}
	.st86{opacity:0.47;fill:url(#SVGID_64_);}
	.st87{opacity:0.45;fill:url(#SVGID_65_);}
	.st88{filter:url(#Adobe_OpacityMaskFilter_16_);}
	.st89{mask:url(#SVGID_66_);fill:url(#SVGID_67_);}
	.st90{filter:url(#Adobe_OpacityMaskFilter_17_);}
	.st91{mask:url(#SVGID_68_);fill:url(#SVGID_69_);}
	.st92{fill:url(#SVGID_70_);}
	.st93{opacity:0.47;fill:url(#SVGID_71_);}
	.st94{opacity:0.45;fill:url(#SVGID_72_);}
	.st95{filter:url(#Adobe_OpacityMaskFilter_18_);}
	.st96{mask:url(#SVGID_73_);fill:url(#SVGID_74_);}
	.st97{filter:url(#Adobe_OpacityMaskFilter_19_);}
	.st98{mask:url(#SVGID_75_);fill:url(#SVGID_76_);}
	.st99{fill:#DEDC00;stroke:#2D2E83;stroke-width:0.1405;stroke-miterlimit:10;}
</style>
<g>
	<path d="M16.72,1.64c0.46,1.57,1.45,2.64,3.06,3.14c-0.55,1.75-1.38,3.29-2.5,4.68c-1.92,2.38-4.42,3.92-7.24,5.01
		c-0.34,0.13-0.57,0.11-0.84-0.19c-0.58-0.65-1.24-1.23-1.83-1.87c-0.13-0.15-0.21-0.47-0.14-0.65c1.47-4.29,4.01-7.69,8.23-9.64
		C15.85,1.93,16.26,1.81,16.72,1.64z M14.43,5.58c-0.86-0.02-1.55,0.64-1.59,1.51c-0.04,0.89,0.63,1.62,1.52,1.65
		c0.85,0.03,1.59-0.7,1.61-1.58C15.99,6.32,15.28,5.6,14.43,5.58z"/>
	<path d="M8.95,6.89C8.81,7.13,8.68,7.37,8.55,7.6c-0.44,0.85-0.87,1.7-1.34,2.54c-0.08,0.14-0.31,0.32-0.44,0.3
		c-1.42-0.26-2.63,0.34-3.83,0.95c-0.15,0.08-0.29,0.16-0.45,0.26C2.68,9.22,6.56,6.35,8.95,6.89z"/>
	<path d="M14.7,12.74c0.29,2.85-1.93,5.67-4.75,6.67c0.79-1.5,1.56-2.97,1.2-4.72C12.32,14.04,13.49,13.4,14.7,12.74z"/>
	<path d="M20.49,0.88c-0.17,1.14-0.28,2.05-0.45,2.95c-0.02,0.11-0.37,0.27-0.51,0.22c-1.03-0.35-1.71-1.09-2.11-2.09
		c-0.14-0.35-0.07-0.56,0.35-0.62C18.61,1.22,19.44,1.07,20.49,0.88z"/>
	<path d="M6.31,13.65c0.53,0.46,0.96,0.82,1.36,1.21c0.48,0.47,0.47,0.48-0.11,0.95c-0.54-0.53-1.08-1.07-1.71-1.69
		C6.03,13.93,6.22,13.74,6.31,13.65z"/>
	<path d="M9.28,15.35c-0.98-0.94-2.03-1.93-3.1-2.96C6.69,12.38,9.25,14.97,9.28,15.35z"/>
	<path d="M5.82,16.09c-1,0.93-2,1.86-3.07,2.85c0.91-1.14,1.91-2.07,2.9-3.01C5.7,15.98,5.76,16.03,5.82,16.09z"/>
	<path d="M8.95,17.55c-0.68,0.68-1.37,1.35-2.05,2.03c-0.11-0.11-0.22-0.22-0.33-0.33c0.67-0.69,1.34-1.38,2.01-2.07
		C8.7,17.3,8.83,17.42,8.95,17.55z"/>
	<path d="M2.69,16.78C3.37,16.19,4.06,15.6,4.74,15C4.62,15.31,3.39,16.64,2.69,16.78z"/>
	<path d="M6.88,17.22c-0.7,0.6-1.4,1.2-2.01,1.71C4.89,18.65,6.27,17.24,6.88,17.22z"/>
	<path d="M4.61,13.05c-0.66,0.69-1.33,1.39-1.99,2.08c-0.06-0.05-0.12-0.1-0.18-0.16c0.51-0.82,1.31-1.39,1.95-2.1
		C4.47,12.93,4.54,12.99,4.61,13.05z"/>
</g>
</svg>
