<?xml version="1.0" encoding="utf-8"?>
<!-- Generator: Adobe Illustrator 24.1.3, SVG Export Plug-In . SVG Version: 6.00 Build 0)  -->
<svg version="1.1" id="Ebene_1" xmlns="http://www.w3.org/2000/svg" xmlns:xlink="http://www.w3.org/1999/xlink" x="0px" y="0px"
	 viewBox="0 0 22.93 20.46" style="enable-background:new 0 0 22.93 20.46;" xml:space="preserve">
<style type="text/css">
	.st0{fill:#D8D8D8;}
	.st1{fill:#FEF3F9;}
	.st2{fill:#EEF5E3;}
	.st3{fill:none;stroke:#EC69A4;stroke-width:8;stroke-miterlimit:10;}
	.st4{fill:none;stroke:#EC69A4;stroke-width:8;stroke-miterlimit:10;stroke-dasharray:29.9391,29.9391;}
	.st5{fill:none;stroke:#CECECE;stroke-width:8;stroke-miterlimit:10;}
	.st6{fill:none;stroke:#CECECE;stroke-width:8;stroke-miterlimit:10;stroke-dasharray:11.9758,11.9758;}
	.st7{fill:none;stroke:#000000;stroke-width:3;stroke-miterlimit:10;}
	.st8{fill:#B4E1FA;}
	.st9{clip-path:url(#SVGID_2_);}
	.st10{fill:#FFFFFF;stroke:#000000;stroke-width:0.5;stroke-miterlimit:10;}
	.st11{fill:#FFFFFF;}
	.st12{opacity:0.52;}
	.st13{fill:url(#SVGID_3_);}
	.st14{opacity:0.47;fill:url(#SVGID_4_);}
	.st15{opacity:0.45;fill:url(#SVGID_5_);}
	.st16{filter:url(#Adobe_OpacityMaskFilter);}
	.st17{mask:url(#SVGID_6_);fill:url(#SVGID_7_);}
	.st18{filter:url(#Adobe_OpacityMaskFilter_1_);}
	.st19{mask:url(#SVGID_8_);fill:url(#SVGID_9_);}
	.st20{fill:none;stroke:#000000;stroke-width:3;stroke-linecap:round;stroke-linejoin:round;}
	.st21{fill:none;stroke:#000000;stroke-width:3;stroke-linecap:round;stroke-linejoin:round;stroke-miterlimit:10;}
	.st22{opacity:0.23;}
	.st23{fill:#6067AE;}
	.st24{fill:#DBF0FD;stroke:#005AA7;stroke-width:7;stroke-miterlimit:10;}
	.st25{fill:#FFE2B0;stroke:#E74310;stroke-width:7;stroke-miterlimit:10;}
	.st26{fill:#DDE48B;stroke:#1FA637;stroke-width:7;stroke-miterlimit:10;}
	.st27{fill:#DADADA;stroke:#000000;stroke-width:7;stroke-miterlimit:10;}
	.st28{fill:#F9D1E4;stroke:#E6007E;stroke-width:7;stroke-miterlimit:10;}
	.st29{fill:none;stroke:#E74310;stroke-width:5;stroke-miterlimit:10;}
	.st30{fill:#E74310;}
	.st31{fill:url(#SVGID_10_);}
	.st32{opacity:0.47;fill:url(#SVGID_11_);}
	.st33{opacity:0.45;fill:url(#SVGID_12_);}
	.st34{filter:url(#Adobe_OpacityMaskFilter_2_);}
	.st35{mask:url(#SVGID_13_);fill:url(#SVGID_14_);}
	.st36{filter:url(#Adobe_OpacityMaskFilter_3_);}
	.st37{mask:url(#SVGID_15_);fill:url(#SVGID_16_);}
	.st38{fill:url(#SVGID_17_);}
	.st39{opacity:0.47;fill:url(#SVGID_18_);}
	.st40{opacity:0.45;fill:url(#SVGID_19_);}
	.st41{filter:url(#Adobe_OpacityMaskFilter_4_);}
	.st42{mask:url(#SVGID_20_);fill:url(#SVGID_21_);}
	.st43{filter:url(#Adobe_OpacityMaskFilter_5_);}
	.st44{mask:url(#SVGID_22_);fill:url(#SVGID_23_);}
	.st45{fill:url(#SVGID_24_);}
	.st46{opacity:0.47;fill:url(#SVGID_25_);}
	.st47{opacity:0.45;fill:url(#SVGID_26_);}
	.st48{filter:url(#Adobe_OpacityMaskFilter_6_);}
	.st49{mask:url(#SVGID_27_);fill:url(#SVGID_28_);}
	.st50{filter:url(#Adobe_OpacityMaskFilter_7_);}
	.st51{mask:url(#SVGID_29_);fill:url(#SVGID_30_);}
	.st52{fill:#DEDC00;stroke:#2D2E83;stroke-miterlimit:10;}
	.st53{clip-path:url(#SVGID_32_);}
	.st54{fill:url(#SVGID_33_);}
	.st55{opacity:0.47;fill:url(#SVGID_34_);}
	.st56{opacity:0.45;fill:url(#SVGID_35_);}
	.st57{filter:url(#Adobe_OpacityMaskFilter_8_);}
	.st58{mask:url(#SVGID_36_);fill:url(#SVGID_37_);}
	.st59{filter:url(#Adobe_OpacityMaskFilter_9_);}
	.st60{mask:url(#SVGID_38_);fill:url(#SVGID_39_);}
	.st61{fill:url(#SVGID_40_);}
	.st62{opacity:0.47;fill:url(#SVGID_41_);}
	.st63{opacity:0.45;fill:url(#SVGID_42_);}
	.st64{filter:url(#Adobe_OpacityMaskFilter_10_);}
	.st65{mask:url(#SVGID_43_);fill:url(#SVGID_44_);}
	.st66{filter:url(#Adobe_OpacityMaskFilter_11_);}
	.st67{mask:url(#SVGID_45_);fill:url(#SVGID_46_);}
	.st68{fill:url(#SVGID_47_);}
	.st69{opacity:0.47;fill:url(#SVGID_48_);}
	.st70{opacity:0.45;fill:url(#SVGID_49_);}
	.st71{filter:url(#Adobe_OpacityMaskFilter_12_);}
	.st72{mask:url(#SVGID_50_);fill:url(#SVGID_51_);}
	.st73{filter:url(#Adobe_OpacityMaskFilter_13_);}
	.st74{mask:url(#SVGID_52_);fill:url(#SVGID_53_);}
	.st75{fill:url(#SVGID_54_);}
	.st76{opacity:0.47;fill:url(#SVGID_55_);}
	.st77{opacity:0.45;fill:url(#SVGID_56_);}
	.st78{filter:url(#Adobe_OpacityMaskFilter_14_);}
	.st79{mask:url(#SVGID_57_);fill:url(#SVGID_58_);}
	.st80{filter:url(#Adobe_OpacityMaskFilter_15_);}
	.st81{mask:url(#SVGID_59_);fill:url(#SVGID_60_);}
	.st82{stroke:#000000;stroke-miterlimit:10;}
	.st83{fill:#FFFDEA;}
	.st84{clip-path:url(#SVGID_62_);}
	.st85{fill:url(#SVGID_63_);}
	.st86{opacity:0.47;fill:url(#SVGID_64_);}
	.st87{opacity:0.45;fill:url(#SVGID_65_);}
	.st88{filter:url(#Adobe_OpacityMaskFilter_16_);}
	.st89{mask:url(#SVGID_66_);fill:url(#SVGID_67_);}
	.st90{filter:url(#Adobe_OpacityMaskFilter_17_);}
	.st91{mask:url(#SVGID_68_);fill:url(#SVGID_69_);}
	.st92{fill:url(#SVGID_70_);}
	.st93{opacity:0.47;fill:url(#SVGID_71_);}
	.st94{opacity:0.45;fill:url(#SVGID_72_);}
	.st95{filter:url(#Adobe_OpacityMaskFilter_18_);}
	.st96{mask:url(#SVGID_73_);fill:url(#SVGID_74_);}
	.st97{filter:url(#Adobe_OpacityMaskFilter_19_);}
	.st98{mask:url(#SVGID_75_);fill:url(#SVGID_76_);}
	.st99{fill:#DEDC00;stroke:#2D2E83;stroke-width:0.1405;stroke-miterlimit:10;}
</style>
<g>
	<path d="M15.41,3.75c-0.12,0.8-0.01,0.83,0.7,0.98C17,4.9,17.88,5.14,18.59,5.77c0.55,0.48,1.2,0.87,1.66,1.42
		c1.09,1.28,1.56,2.78,1.54,4.49c-0.03,1.85-0.66,3.36-1.99,4.66c-0.64,0.62-1.31,1.16-2.09,1.52c-1.28,0.6-2.67,0.85-4.06,0.62
		c-1.51-0.26-2.94-0.83-4.03-1.94c-0.81-0.82-1.41-1.8-1.83-2.93c-0.42-1.14-0.37-2.26-0.23-3.37c0.1-0.8,0.54-1.58,0.93-2.31
		c0.52-0.97,1.38-1.66,2.26-2.29c0.41-0.29,0.93-0.44,1.41-0.61c0.59-0.21,1.2-0.36,1.78-0.57c0.12-0.04,0.24-0.28,0.23-0.42
		c-0.01-0.1-0.22-0.24-0.35-0.27c-0.41-0.08-0.83-0.07-1.23-0.18c-0.17-0.05-0.31-0.31-0.4-0.51c-0.06-0.15,0-0.35-0.02-0.52
		c-0.04-0.43,0.19-0.63,0.59-0.64c1.25-0.01,2.51-0.02,3.76,0.01c0.16,0,0.4,0.17,0.47,0.33c0.36,0.76-0.1,1.48-0.93,1.5
		C15.87,3.75,15.66,3.75,15.41,3.75z M14.62,5.87C11.36,5.82,8.79,8.4,8.8,11.5c0.01,3.3,2.58,5.66,5.87,5.71
		c3.08,0.05,5.84-2.52,5.82-5.7C20.47,8.46,17.86,5.75,14.62,5.87z"/>
	<path d="M6.33,11.23c0.03,0.72-0.04,0.79-0.72,0.8c-1.25,0-2.5,0-3.75,0c-0.67,0-0.76-0.1-0.7-0.78
		C1.79,10.99,5.59,10.97,6.33,11.23z"/>
	<path d="M4.79,7.87c0.56,0,1.13,0.01,1.69,0C6.86,7.85,7.1,8.06,7.1,8.39c0,0.33-0.28,0.48-0.61,0.48c-1.18,0-2.36,0.01-3.54-0.01
		c-0.32-0.01-0.68-0.15-0.6-0.53c0.04-0.19,0.38-0.43,0.6-0.45C3.55,7.83,4.17,7.87,4.79,7.87z"/>
	<path d="M4.7,14.32c0.6,0,1.2,0,1.8,0c0.27,0,0.44,0.1,0.46,0.38c0.02,0.29-0.15,0.48-0.43,0.49c-1.23,0.01-2.47,0.02-3.7-0.02
		c-0.14,0-0.28-0.33-0.42-0.5c0.15-0.12,0.29-0.32,0.44-0.33C3.46,14.3,4.08,14.32,4.7,14.32z"/>
	<path d="M18.79,4.83c1.18-0.75,1.7-0.22,2.27,0.57c0.17,0.24,0.07,0.7,0.05,1.05c0,0.05-0.33,0.16-0.39,0.1
		c-0.63-0.52-1.24-1.07-1.85-1.62C18.83,4.92,18.82,4.88,18.79,4.83z"/>
	<path d="M8.22,6.67C7.94,5.9,8.05,5.24,8.51,4.85c0.55-0.48,1.06-0.48,1.9-0.01C9.68,5.44,8.97,6.04,8.22,6.67z"/>
	<path d="M14.25,7.79c0.27,0.02,0.52,0.04,0.81,0.05c0,0.74-0.02,1.43,0.01,2.11c0.01,0.23,0.12,0.52,0.29,0.66
		c0.39,0.33,0.64,0.71,0.51,1.21c-0.13,0.5-0.79,0.91-1.24,0.88c-0.55-0.04-1.13-0.43-1.16-0.96c-0.02-0.35,0.16-0.76,0.38-1.05
		c0.21-0.27,0.37-0.49,0.36-0.85c-0.03-0.62-0.01-1.23,0-1.85C14.21,7.97,14.22,7.94,14.25,7.79z"/>
</g>
</svg>
