<?xml version="1.0" encoding="utf-8"?>
<!-- Generator: Adobe Illustrator 24.1.3, SVG Export Plug-In . SVG Version: 6.00 Build 0)  -->
<svg version="1.1" id="Ebene_1" xmlns="http://www.w3.org/2000/svg" xmlns:xlink="http://www.w3.org/1999/xlink" x="0px" y="0px"
	 viewBox="0 0 22.93 20.46" style="enable-background:new 0 0 22.93 20.46;" xml:space="preserve">
<style type="text/css">
	.st0{fill:#D8D8D8;}
	.st1{fill:#FEF3F9;}
	.st2{fill:#EEF5E3;}
	.st3{fill:none;stroke:#EC69A4;stroke-width:8;stroke-miterlimit:10;}
	.st4{fill:none;stroke:#EC69A4;stroke-width:8;stroke-miterlimit:10;stroke-dasharray:29.9391,29.9391;}
	.st5{fill:none;stroke:#CECECE;stroke-width:8;stroke-miterlimit:10;}
	.st6{fill:none;stroke:#CECECE;stroke-width:8;stroke-miterlimit:10;stroke-dasharray:11.9758,11.9758;}
	.st7{fill:none;stroke:#000000;stroke-width:3;stroke-miterlimit:10;}
	.st8{fill:#B4E1FA;}
	.st9{clip-path:url(#SVGID_2_);}
	.st10{fill:#FFFFFF;stroke:#000000;stroke-width:0.5;stroke-miterlimit:10;}
	.st11{fill:#FFFFFF;}
	.st12{opacity:0.52;}
	.st13{fill:url(#SVGID_3_);}
	.st14{opacity:0.47;fill:url(#SVGID_4_);}
	.st15{opacity:0.45;fill:url(#SVGID_5_);}
	.st16{filter:url(#Adobe_OpacityMaskFilter);}
	.st17{mask:url(#SVGID_6_);fill:url(#SVGID_7_);}
	.st18{filter:url(#Adobe_OpacityMaskFilter_1_);}
	.st19{mask:url(#SVGID_8_);fill:url(#SVGID_9_);}
	.st20{fill:none;stroke:#000000;stroke-width:3;stroke-linecap:round;stroke-linejoin:round;}
	.st21{fill:none;stroke:#000000;stroke-width:3;stroke-linecap:round;stroke-linejoin:round;stroke-miterlimit:10;}
	.st22{opacity:0.23;}
	.st23{fill:#6067AE;}
	.st24{fill:#DBF0FD;stroke:#005AA7;stroke-width:7;stroke-miterlimit:10;}
	.st25{fill:#FFE2B0;stroke:#E74310;stroke-width:7;stroke-miterlimit:10;}
	.st26{fill:#DDE48B;stroke:#1FA637;stroke-width:7;stroke-miterlimit:10;}
	.st27{fill:#DADADA;stroke:#000000;stroke-width:7;stroke-miterlimit:10;}
	.st28{fill:#F9D1E4;stroke:#E6007E;stroke-width:7;stroke-miterlimit:10;}
	.st29{fill:none;stroke:#E74310;stroke-width:5;stroke-miterlimit:10;}
	.st30{fill:#E74310;}
	.st31{fill:url(#SVGID_10_);}
	.st32{opacity:0.47;fill:url(#SVGID_11_);}
	.st33{opacity:0.45;fill:url(#SVGID_12_);}
	.st34{filter:url(#Adobe_OpacityMaskFilter_2_);}
	.st35{mask:url(#SVGID_13_);fill:url(#SVGID_14_);}
	.st36{filter:url(#Adobe_OpacityMaskFilter_3_);}
	.st37{mask:url(#SVGID_15_);fill:url(#SVGID_16_);}
	.st38{fill:url(#SVGID_17_);}
	.st39{opacity:0.47;fill:url(#SVGID_18_);}
	.st40{opacity:0.45;fill:url(#SVGID_19_);}
	.st41{filter:url(#Adobe_OpacityMaskFilter_4_);}
	.st42{mask:url(#SVGID_20_);fill:url(#SVGID_21_);}
	.st43{filter:url(#Adobe_OpacityMaskFilter_5_);}
	.st44{mask:url(#SVGID_22_);fill:url(#SVGID_23_);}
	.st45{fill:url(#SVGID_24_);}
	.st46{opacity:0.47;fill:url(#SVGID_25_);}
	.st47{opacity:0.45;fill:url(#SVGID_26_);}
	.st48{filter:url(#Adobe_OpacityMaskFilter_6_);}
	.st49{mask:url(#SVGID_27_);fill:url(#SVGID_28_);}
	.st50{filter:url(#Adobe_OpacityMaskFilter_7_);}
	.st51{mask:url(#SVGID_29_);fill:url(#SVGID_30_);}
	.st52{fill:#DEDC00;stroke:#2D2E83;stroke-miterlimit:10;}
	.st53{clip-path:url(#SVGID_32_);}
	.st54{fill:url(#SVGID_33_);}
	.st55{opacity:0.47;fill:url(#SVGID_34_);}
	.st56{opacity:0.45;fill:url(#SVGID_35_);}
	.st57{filter:url(#Adobe_OpacityMaskFilter_8_);}
	.st58{mask:url(#SVGID_36_);fill:url(#SVGID_37_);}
	.st59{filter:url(#Adobe_OpacityMaskFilter_9_);}
	.st60{mask:url(#SVGID_38_);fill:url(#SVGID_39_);}
	.st61{fill:url(#SVGID_40_);}
	.st62{opacity:0.47;fill:url(#SVGID_41_);}
	.st63{opacity:0.45;fill:url(#SVGID_42_);}
	.st64{filter:url(#Adobe_OpacityMaskFilter_10_);}
	.st65{mask:url(#SVGID_43_);fill:url(#SVGID_44_);}
	.st66{filter:url(#Adobe_OpacityMaskFilter_11_);}
	.st67{mask:url(#SVGID_45_);fill:url(#SVGID_46_);}
	.st68{fill:url(#SVGID_47_);}
	.st69{opacity:0.47;fill:url(#SVGID_48_);}
	.st70{opacity:0.45;fill:url(#SVGID_49_);}
	.st71{filter:url(#Adobe_OpacityMaskFilter_12_);}
	.st72{mask:url(#SVGID_50_);fill:url(#SVGID_51_);}
	.st73{filter:url(#Adobe_OpacityMaskFilter_13_);}
	.st74{mask:url(#SVGID_52_);fill:url(#SVGID_53_);}
	.st75{fill:url(#SVGID_54_);}
	.st76{opacity:0.47;fill:url(#SVGID_55_);}
	.st77{opacity:0.45;fill:url(#SVGID_56_);}
	.st78{filter:url(#Adobe_OpacityMaskFilter_14_);}
	.st79{mask:url(#SVGID_57_);fill:url(#SVGID_58_);}
	.st80{filter:url(#Adobe_OpacityMaskFilter_15_);}
	.st81{mask:url(#SVGID_59_);fill:url(#SVGID_60_);}
	.st82{stroke:#000000;stroke-miterlimit:10;}
	.st83{fill:#FFFDEA;}
	.st84{clip-path:url(#SVGID_62_);}
	.st85{fill:url(#SVGID_63_);}
	.st86{opacity:0.47;fill:url(#SVGID_64_);}
	.st87{opacity:0.45;fill:url(#SVGID_65_);}
	.st88{filter:url(#Adobe_OpacityMaskFilter_16_);}
	.st89{mask:url(#SVGID_66_);fill:url(#SVGID_67_);}
	.st90{filter:url(#Adobe_OpacityMaskFilter_17_);}
	.st91{mask:url(#SVGID_68_);fill:url(#SVGID_69_);}
	.st92{fill:url(#SVGID_70_);}
	.st93{opacity:0.47;fill:url(#SVGID_71_);}
	.st94{opacity:0.45;fill:url(#SVGID_72_);}
	.st95{filter:url(#Adobe_OpacityMaskFilter_18_);}
	.st96{mask:url(#SVGID_73_);fill:url(#SVGID_74_);}
	.st97{filter:url(#Adobe_OpacityMaskFilter_19_);}
	.st98{mask:url(#SVGID_75_);fill:url(#SVGID_76_);}
	.st99{fill:#DEDC00;stroke:#2D2E83;stroke-width:0.1405;stroke-miterlimit:10;}
</style>
<g>
	<path d="M12.75,3.24c-0.15-0.82-0.6-1.45-1.17-2.01c-0.06,0.03-0.11,0.05-0.17,0.08c0.04,0.15,0.06,0.32,0.14,0.44
		c0.26,0.41,0.69,0.77,0.78,1.21c0.1,0.45-0.11,0.98-0.2,1.55c0.24,0.02,0.54-0.07,0.75-0.42c0.09-0.16,0.18-0.38,0.32-0.43
		c0.16-0.06,0.39,0.03,0.58,0.05c-0.03,0.2,0,0.51-0.11,0.57c-0.33,0.2-0.72,0.31-1.1,0.43c-0.31,0.1-0.64,0.19-0.96,0.27
		c-0.57,0.13-1.15,0.3-1.73,0.37C9.45,5.39,9.13,5.52,9.05,5.97c-0.31,1.64-0.81,3.26-0.48,4.97c0.14,0.73,0.16,1.48,0.24,2.37
		c0.34-0.46,0.53-0.83,0.82-1.11c0.74-0.72,1.61-1,2.66-0.74c1.12,0.27,2.21,0.33,3.19-0.54c0.85-0.75,1.89-1.09,3.05-0.99
		c0.7,0.06,0.79,0.17,0.8,0.85c0.02,2.77,0.02,5.55,0.05,8.32c0,0.42-0.13,0.51-0.54,0.55c-1.15,0.13-1.91-0.25-2.26-1.4
		c-0.09-0.29-0.26-0.56-0.45-0.97c-0.55,0.22-1.14,0.37-1.61,0.68c-1.81,1.2-3.82,1.32-5.9,1.21c-0.95-0.05-1.91-0.1-2.86-0.09
		c-1.04,0.01-1.74-0.58-2.34-1.3c-0.15-0.18-0.24-0.56-0.15-0.77c0.29-0.73,0.25-1.46,0.18-2.21c-0.15-1.52,0.15-2.94,0.88-4.29
		C5.2,8.9,6.01,7.23,6.45,5.42c0.49-2,1.95-3.17,3.51-4.27c0.06-0.04,0.14-0.05,0.2-0.09c0.71-0.46,1.49-0.39,2.06,0.23
		c0.33,0.36,0.64,0.75,0.91,1.17C13.41,2.88,13.3,3.08,12.75,3.24z M10.54,1.73c0.33,0.76,0.62,1.41,0.9,2.06
		c-0.1,0.13-0.2,0.26-0.3,0.4c-0.09,0.12-0.18,0.25-0.33,0.46c0.8-0.3,1.02-0.52,0.85-1.15c-0.16-0.6-0.51-1.15-0.79-1.72
		C10.86,1.75,10.75,1.76,10.54,1.73z M9.74,2.21c0.06,0.27,0.07,0.4,0.11,0.52c0.23,0.57,0.71,1.12,0,1.69
		C9.79,4.47,9.84,4.64,9.84,4.79C10.72,4.14,10.73,2.89,9.74,2.21z"/>
</g>
</svg>
